<?xml version="1.0" encoding="UTF-8" standalone="no"?>
<svg
   viewBox="0.5 0.5 12 12"
   version="1.1"
   id="svg3"
   sodipodi:docname="super-s.svg"
   inkscape:version="1.4.2 (ebf0e940d0, 2025-05-08)"
   width="12"
   height="12"
   xmlns:inkscape="http://www.inkscape.org/namespaces/inkscape"
   xmlns:sodipodi="http://sodipodi.sourceforge.net/DTD/sodipodi-0.dtd"
   xmlns:xlink="http://www.w3.org/1999/xlink"
   xmlns="http://www.w3.org/2000/svg"
   xmlns:svg="http://www.w3.org/2000/svg">
  <sodipodi:namedview
     id="namedview3"
     pagecolor="#505050"
     bordercolor="#eeeeee"
     borderopacity="1"
     inkscape:showpageshadow="0"
     inkscape:pageopacity="0"
     inkscape:pagecheckerboard="0"
     inkscape:deskcolor="#505050"
     showgrid="true"
     inkscape:zoom="47.376154"
     inkscape:cx="7.8837129"
     inkscape:cy="4.8231015"
     inkscape:window-width="1829"
     inkscape:window-height="946"
     inkscape:window-x="0"
     inkscape:window-y="0"
     inkscape:window-maximized="1"
     inkscape:current-layer="svg3">
    <inkscape:grid
       id="grid3"
       units="px"
       originx="0"
       originy="0"
       spacingx="1"
       spacingy="1"
       empcolor="#0099e5"
       empopacity="0.30196078"
       color="#0099e5"
       opacity="0.14901961"
       empspacing="5"
       enabled="true"
       visible="true" />
  </sodipodi:namedview>
  <defs
     id="defs2">
    <linearGradient
       id="superS-gradient"
       x1="1"
       y1="1"
       x2="5"
       y2="11"
       gradientUnits="userSpaceOnUse"
       gradientTransform="translate(3.5145238,0.4854763)">
      <stop
         offset="0%"
         stop-color="#00FFD0"
         id="stop1" />
      <stop
         offset="100%"
         stop-color="#7F00FF"
         id="stop2" />
    </linearGradient>
  </defs>
  <!-- Fill for the S shape -->
  <!-- Gradient stroke for the S shape -->
  <g
     id="g3"
     transform="translate(-0.0145236,0.0145236)">
    <path
       id="a"
       fill="none"
       stroke="url(#superS-gradient)"
       stroke-width="0.4"
       d="m 6.5145238,9.4854763 v -2 l -2,-2 v -2 l 2,-2 2,2 v 2 l -1,1"
       style="stroke:url(#superS-gradient)" />
    <use
       xlink:href="#a"
       transform="rotate(180,6.5145236,6.4854764)"
       id="use3" />
    <path
       style="fill:#0f0f03;fill-opacity:1;stroke-width:0.0149254"
       d="M 5.6152234,10.295132 4.723479,9.4032942 V 8.4853244 7.5673547 L 5.1190014,7.1720435 5.5145238,6.7767323 5.9100462,7.1720435 6.3055686,7.5673547 V 8.5264154 9.4854763 H 6.5145238 6.723479 V 8.4443897 7.4033032 l -1,-0.9999165 -1,-0.9999164 V 4.4854714 3.5674726 L 5.6190014,2.6720435 6.5145238,1.7766144 7.4100462,2.6720435 8.3055686,3.5674726 V 4.4855353 5.4035979 L 7.9100462,5.7989091 7.5145238,6.1942203 7.1190014,5.7989091 6.723479,5.4035979 V 4.4445372 3.4854763 H 6.5145238 6.3055686 v 1.0410866 1.0410865 l 1,0.9999165 1,0.9999164 v 0.9179059 0.917906 L 7.4138242,10.295132 c -0.4904595,0.49051 -0.8951446,0.891837 -0.8993004,0.891837 -0.00416,0 -0.408841,-0.401327 -0.8993004,-0.891837 z"
       id="path3" />
  </g>
</svg>
